{"title":"Taken 2 2012 CAM XviD-NOYP (NO.FAKE!)","uid":7704160,"size":903393312,"categoryP":"video","categoryS":"movies","magnet":"?xt=urn:btih:5ddd9621452384d5facdddb4957b3936635d52d2&amp;dn=Taken+2+2012+CAM+XviD-NOYP+%28NO.FAKE%21%29&amp;tr=udp%3A%2F%2Ftracker.openbittorrent.com%3A80&amp;tr=udp%3A%2F%2Fopen.demonii.com%3A1337&amp;tr=udp%3A%2F%2Ftracker.coppersurfer.tk%3A6969&amp;tr=udp%3A%2F%2Fexodus.desync.com%3A6969","seeders":0,"leechers":0,"uploader":"k3nsh1n","files":-1,"time":1349635371,"description":"Description\nGeneral\nComplete name : C:Users\\DocumentsTaken 2 2012 CAM XviD-NOYPi.avi\nFormat : AVI\nFormat/Info : Audio Video Interleave\nFile size : 862 MiB\nDuration : 1h 23mn\nOverall bit rate : 1 445 Kbps\nWriting application : VirtualDubMod 1.5.10.2 (build 2540/release)\nWriting library : VirtualDubMod build 2540/release\n\nVideo\nID : 0\nFormat : MPEG-4 Visual\nFormat profile : Advanced Simple@L5\nFormat settings, BVOP : 2\nFormat settings, QPel : No\nFormat settings, GMC : No warppoints\nFormat settings, Matrix : Default (H.263)\nMuxing mode : Packed bitstream\nCodec ID : XVID\nCodec ID/Hint : XviD\nDuration : 1h 23mn\nBit rate : 666 Kbps\nWidth : 640 pixels\nHeight : 300 pixels\nDisplay aspect ratio : 3:2\nOriginal display aspect ratio : 2.133\nFrame rate : 29.970 fps\nColor space : YUV\nChroma subsampling : 4:2:0\nBit depth : 8 bits\nScan type : Progressive\nCompression mode : Lossy\nBits/(Pixel*Frame) : 0.116\nStream size : 397 MiB (46%)\nWriting library : XviD 64\n\nAudio\nID : 1\nFormat : PCM\nFormat settings, Endianness : Little\nFormat settings, Sign : Signed\nCodec ID : 1\nDuration : 1h 23mn\nBit rate mode : Constant\nBit rate : 768 Kbps\nChannel(s) : 1 channel\nSampling rate : 48.0 KHz\nBit depth : 16 bits\nStream size : 458 MiB (53%)\nInterleave, duration : 33 ms (1.00 video frame)\nInterleave, preload duration : 500 ms","torrent":{"xt":"urn:btih:5ddd9621452384d5facdddb4957b3936635d52d2","amp;dn":"Taken+2+2012+CAM+XviD-NOYP+%28NO.FAKE%21%29","amp;tr":["udp%3A%2F%2Ftracker.openbittorrent.com%3A80","udp%3A%2F%2Fopen.demonii.com%3A1337","udp%3A%2F%2Ftracker.coppersurfer.tk%3A6969","udp%3A%2F%2Fexodus.desync.com%3A6969"],"infoHash":"5ddd9621452384d5facdddb4957b3936635d52d2","infoHashBuffer":{"type":"Buffer","data":[93,221,150,33,69,35,132,213,250,205,221,180,149,123,57,54,99,93,82,210]},"announce":[],"urlList":[]}}